<?xml version="1.0" standalone="no"?>
<!DOCTYPE svg PUBLIC "-//W3C//DTD SVG 20010904//EN"
 "http://www.w3.org/TR/2001/REC-SVG-20010904/DTD/svg10.dtd">
<svg version="1.0" xmlns="http://www.w3.org/2000/svg"
 width="1995.000000pt" height="1109.000000pt" viewBox="0 0 1995.000000 1109.000000"
 preserveAspectRatio="xMidYMid meet">

<g transform="translate(0.000000,1109.000000) scale(0.100000,-0.100000)"
fill="#000000" stroke="none">
<path d="M2981 11065 c-185 -52 -328 -202 -339 -355 -6 -91 26 -160 117 -250
84 -83 144 -119 247 -151 269 -82 424 -301 463 -653 13 -116 13 -268 1 -401
-23 -235 -23 -260 -7 -310 9 -26 28 -63 42 -81 14 -18 25 -35 25 -39 0 -13
-311 36 -399 64 -87 27 -183 84 -257 153 -78 74 -164 198 -164 238 0 44 46 88
155 150 95 54 180 129 173 153 -2 7 -39 30 -83 52 -66 34 -89 40 -140 40 -103
0 -175 -60 -238 -199 -26 -56 -67 -233 -67 -286 0 -61 40 -141 135 -270 132
-180 153 -236 165 -445 12 -208 52 -330 150 -453 90 -114 201 -170 380 -192
47 -5 106 -17 132 -26 54 -17 107 -68 123 -116 8 -24 6 -928 -7 -3283 -10
-1787 -17 -3457 -15 -3710 l2 -460 25 -50 c34 -70 105 -138 165 -158 175 -60
338 62 375 281 6 37 92 1637 190 3557 99 1920 182 3521 185 3559 9 99 50 250
87 324 45 90 129 165 213 191 77 24 110 28 325 41 304 18 363 47 547 270 574
695 997 1588 1052 2218 10 110 5 272 -9 272 -3 0 -14 -26 -24 -57 -30 -99
-150 -333 -234 -459 -117 -173 -198 -271 -357 -429 -427 -427 -978 -737 -1584
-890 -94 -24 -372 -75 -407 -75 -9 0 4 23 33 57 62 77 91 143 105 242 16 117
6 143 -96 244 -125 123 -129 135 -215 573 -90 457 -193 649 -506 952 -152 147
-199 173 -325 178 -56 3 -104 -1 -139 -11z"/>
<path d="M2055 7739 c-164 -19 -261 -88 -321 -229 -18 -43 -19 -109 -25 -1830
-7 -1770 -7 -1786 -28 -1865 -28 -106 -60 -168 -119 -235 -212 -237 -570 -128
-675 205 -42 133 -52 222 -52 495 0 278 4 320 61 625 44 239 95 362 186 455
129 131 356 173 422 78 32 -46 11 -131 -39 -158 -18 -10 -28 -9 -53 4 -35 18
-46 44 -37 87 7 29 6 30 -13 20 -65 -35 -69 -138 -6 -171 32 -18 130 -7 183
19 55 28 81 72 81 135 0 106 -86 204 -244 281 -138 67 -197 80 -361 79 -125 0
-149 -3 -225 -28 -392 -128 -621 -402 -723 -867 -39 -175 -51 -295 -50 -524 0
-270 23 -438 85 -635 121 -380 354 -638 660 -731 69 -21 79 -22 208 -11 271
24 437 100 532 244 63 96 155 348 182 497 l14 76 2 -85 c5 -280 17 -425 40
-484 26 -67 84 -136 145 -171 55 -33 155 -55 245 -54 133 0 204 42 253 148 27
58 31 78 35 176 3 100 1 114 -20 155 -43 83 -146 111 -230 63 -26 -15 -113
-121 -105 -129 1 -1 32 5 68 13 63 15 68 15 105 -3 25 -12 45 -32 57 -56 16
-32 16 -40 4 -70 -20 -47 -88 -105 -134 -114 -45 -8 -114 8 -156 38 -16 12
-41 46 -55 77 -21 45 -25 71 -26 140 0 76 3 92 28 138 48 88 112 116 316 142
107 13 185 51 211 101 18 33 19 93 19 1563 l0 1528 -26 24 c-32 29 -100 56
-246 96 -173 47 -229 83 -275 177 -24 49 -28 68 -27 137 1 83 24 156 62 198
46 52 152 73 210 43 37 -20 89 -75 102 -110 15 -41 -13 -95 -64 -120 -37 -18
-42 -18 -105 -3 -36 8 -67 14 -68 13 -2 -2 15 -28 37 -58 43 -60 103 -98 156
-98 53 0 117 40 142 90 21 41 23 54 19 155 -5 127 -23 185 -73 243 -62 73
-148 97 -289 81z"/>
<path d="M6320 6066 c-199 -29 -408 -93 -564 -174 -195 -100 -285 -248 -256
-425 24 -153 79 -237 181 -272 126 -45 360 20 411 115 37 67 6 174 -61 213
-32 19 -141 59 -141 52 0 -2 14 -24 31 -49 51 -76 52 -141 2 -190 -24 -24 -34
-28 -74 -24 -83 8 -153 73 -165 156 -21 141 152 272 360 272 232 -1 604 -153
746 -306 117 -126 118 -132 121 -681 2 -422 0 -453 -19 -542 -28 -126 -84
-241 -157 -319 -160 -173 -437 -200 -580 -57 -58 59 -82 120 -105 266 -23 151
-25 206 -9 281 28 129 96 211 272 326 195 127 232 144 300 140 99 -7 143 -72
107 -156 -40 -91 -137 -68 -129 31 4 44 4 44 -19 29 -88 -57 -52 -182 53 -182
100 0 193 55 211 125 20 79 -34 179 -121 227 -97 53 -128 54 -412 13 -323 -46
-485 -93 -656 -189 -189 -106 -318 -261 -389 -466 -32 -93 -33 -99 -33 -265 0
-192 15 -263 82 -383 73 -133 240 -272 373 -312 187 -57 479 -77 637 -44 225
46 388 161 467 327 56 117 113 325 118 424 1 21 4 -52 8 -162 4 -110 12 -225
20 -255 42 -180 163 -273 370 -287 214 -14 315 84 328 318 7 135 -17 197 -90
235 -36 19 -102 18 -145 -3 -28 -13 -137 -132 -129 -140 1 -1 24 4 51 12 81
25 122 20 161 -19 28 -28 34 -41 34 -77 0 -37 -5 -48 -45 -85 -67 -65 -139
-77 -217 -38 -120 62 -154 278 -65 411 42 62 126 105 262 134 176 37 249 87
261 180 3 24 1 287 -5 584 -11 591 -17 658 -71 766 -126 254 -343 389 -730
454 -131 23 -457 28 -580 11z"/>
<path d="M13515 6073 c-143 -13 -348 -65 -503 -127 -193 -78 -297 -159 -350
-274 -22 -48 -27 -71 -26 -142 0 -149 51 -264 141 -317 44 -26 56 -28 143 -28
158 1 271 49 312 133 19 40 20 49 9 96 -15 68 -55 107 -143 140 -38 14 -68 24
-68 21 0 -2 13 -26 30 -51 51 -81 50 -143 -5 -194 -52 -48 -178 1 -216 83 -52
115 4 217 160 291 63 29 72 31 186 31 137 -1 236 -23 409 -94 275 -113 415
-245 446 -421 8 -44 10 -210 8 -515 -4 -427 -5 -454 -26 -530 -68 -246 -216
-396 -422 -427 -176 -26 -336 61 -384 209 -25 77 -41 210 -41 328 1 90 5 120
24 168 34 87 119 172 264 264 197 124 222 136 291 131 51 -4 63 -9 87 -36 48
-53 32 -144 -29 -172 -21 -9 -30 -8 -51 8 -21 15 -27 30 -31 73 l-5 54 -32
-40 c-44 -53 -44 -95 -2 -137 29 -29 33 -30 92 -26 141 12 217 95 188 205 -17
61 -51 105 -110 140 -95 57 -131 59 -389 23 -264 -36 -374 -60 -493 -105 -272
-104 -434 -236 -534 -435 -72 -144 -103 -319 -85 -483 22 -194 72 -300 204
-432 115 -114 191 -154 361 -192 106 -24 142 -27 315 -27 175 -1 203 1 274 22
160 46 298 138 369 244 63 96 127 284 151 447 l13 86 5 -215 c4 -185 8 -224
27 -280 36 -111 106 -181 218 -222 86 -32 261 -32 319 -1 58 31 108 93 130
161 28 83 27 254 -1 301 -26 44 -62 70 -107 77 -83 14 -139 -16 -206 -109
l-33 -46 48 14 c26 8 68 15 91 15 37 0 50 -6 78 -34 54 -54 42 -126 -28 -180
-71 -53 -146 -55 -225 -6 -74 45 -114 204 -80 321 33 112 114 169 297 208 122
27 212 70 240 116 22 35 22 36 17 598 -5 669 -11 724 -94 867 -52 88 -181 217
-266 264 -135 76 -335 132 -549 155 -91 10 -322 12 -413 4z"/>
<path d="M18550 6065 c-196 -27 -367 -78 -537 -161 -123 -59 -212 -134 -251
-210 -33 -64 -47 -159 -34 -230 37 -208 133 -295 311 -281 204 16 314 100 295
224 -10 66 -59 115 -146 148 -38 14 -68 23 -68 21 0 -2 16 -30 36 -62 44 -73
43 -127 -2 -176 -26 -27 -34 -29 -76 -25 -120 11 -200 141 -155 250 19 45 88
104 163 139 153 71 392 38 677 -95 178 -83 283 -175 340 -295 l32 -67 5 -390
c7 -449 0 -578 -36 -702 -35 -120 -77 -197 -151 -271 -206 -208 -539 -178
-640 58 -20 46 -52 257 -52 340 -1 189 74 298 305 444 183 117 210 128 278
124 51 -4 63 -9 87 -36 34 -38 38 -88 12 -132 -45 -77 -129 -46 -121 45 4 51
0 54 -29 23 -52 -58 -56 -106 -12 -150 29 -29 33 -30 92 -26 141 12 217 95
188 205 -17 61 -51 105 -110 140 -95 57 -131 59 -389 23 -255 -35 -347 -55
-477 -100 -416 -147 -636 -433 -636 -829 0 -144 19 -238 72 -349 48 -100 138
-200 246 -272 87 -58 154 -81 329 -110 169 -29 397 -25 514 9 157 46 293 138
365 247 63 95 123 272 149 441 l14 88 1 -170 c2 -203 13 -289 47 -367 31 -68
103 -140 169 -168 107 -46 274 -52 351 -12 104 53 149 147 149 317 0 121 -12
157 -68 199 -40 30 -144 30 -184 0 -26 -20 -114 -126 -109 -132 2 -1 22 5 46
13 23 8 63 15 87 15 38 0 50 -5 79 -34 54 -54 42 -127 -28 -179 -72 -53 -135
-57 -215 -11 -109 63 -137 292 -49 407 42 55 134 101 256 127 117 25 214 70
240 113 11 17 22 49 25 72 12 79 -14 1105 -29 1195 -24 135 -79 234 -190 345
-100 100 -185 151 -331 199 -238 77 -577 106 -835 71z"/>
<path d="M16640 6044 c-19 -2 -77 -9 -128 -15 -112 -13 -259 -51 -329 -85
-103 -50 -204 -188 -267 -364 -17 -49 -35 -92 -39 -96 -4 -4 -7 31 -7 79 0
255 -107 393 -330 428 -138 21 -259 -12 -315 -85 -61 -80 -91 -255 -62 -357
24 -81 75 -121 157 -122 62 -1 102 24 163 101 l49 62 -44 -16 c-98 -35 -172
-17 -205 50 -20 42 -12 75 27 120 106 120 288 72 331 -88 16 -61 14 -177 -6
-235 -18 -55 -85 -137 -141 -171 -19 -12 -105 -48 -192 -79 l-157 -57 -3 -467
-2 -467 22 -9 c393 -141 437 -166 498 -285 32 -64 35 -76 35 -161 0 -82 -3
-97 -30 -151 -61 -119 -194 -147 -292 -61 -51 45 -67 87 -49 130 30 73 91 92
191 62 27 -8 50 -13 51 -12 9 9 -101 127 -131 142 -71 33 -158 10 -207 -56
-42 -56 -40 -239 3 -340 53 -123 177 -176 349 -150 193 30 302 139 330 326 5
39 10 246 10 460 0 430 4 473 64 707 92 360 275 724 454 906 106 108 225 153
349 133 75 -12 102 -23 142 -57 89 -75 78 -225 -21 -295 -48 -35 -91 -30 -135
14 -33 32 -37 42 -36 84 1 26 8 67 17 91 l15 43 -45 -33 c-95 -68 -128 -129
-114 -206 10 -59 35 -91 88 -114 39 -18 60 -20 151 -16 128 6 200 31 253 85
67 68 87 155 69 287 -23 165 -107 275 -239 316 -66 21 -216 33 -292 24z"/>
<path d="M8328 6024 c-110 -26 -181 -74 -221 -149 -32 -58 -31 -202 1 -305 41
-130 121 -187 223 -160 62 17 109 70 136 153 l22 68 -32 -21 c-18 -12 -52 -31
-76 -42 -38 -17 -49 -19 -82 -9 -21 6 -50 26 -64 43 -23 27 -26 39 -22 72 7
47 50 112 96 143 50 34 143 32 197 -3 119 -77 175 -291 112 -427 -41 -88 -85
-134 -237 -247 -77 -58 -140 -110 -141 -116 0 -6 54 -167 120 -359 135 -390
298 -886 385 -1167 l58 -188 336 0 336 0 213 872 c117 480 215 874 217 877 3
2 6 2 8 0 2 -2 81 -323 176 -714 95 -390 182 -735 192 -765 23 -67 100 -182
141 -211 60 -43 111 -50 373 -56 l251 -6 88 304 c209 717 272 928 363 1203
l95 290 -95 91 c-53 49 -104 106 -113 125 -23 46 -30 176 -14 249 18 86 65
175 111 215 39 33 121 61 151 52 7 -3 25 -7 40 -10 91 -20 169 -168 122 -234
-42 -61 -116 -67 -199 -17 -32 20 -60 34 -62 32 -2 -2 7 -33 19 -68 29 -80 78
-133 138 -149 111 -30 186 25 230 169 48 155 34 285 -41 366 -97 105 -341 147
-484 81 -64 -29 -139 -101 -177 -172 -50 -92 -184 -552 -364 -1251 -32 -123
-60 -223 -63 -223 -3 0 -96 376 -205 835 l-200 835 -266 0 c-312 0 -337 -5
-410 -80 -89 -91 -94 -107 -286 -874 -99 -395 -180 -702 -184 -695 -4 8 -37
122 -73 254 -36 132 -90 319 -120 415 -166 539 -232 741 -259 792 -41 78 -119
149 -191 176 -68 26 -179 28 -269 6z"/>
</g>
</svg>
